<?xml version="1.0" encoding="UTF-8"?>
<svg version="1.1" xmlns="http://www.w3.org/2000/svg" width="560" height="708">
<path d="M0 0 C0 138.93 0 277.86 0 421 C106.92 421 213.84 421 324 421 C324 463.57 324 506.14 324 550 C147.12 550 -29.76 550 -212 550 C-212 402.49 -212 254.98 -212 103 C-206.72 100.36 -201.44 97.72 -196 95 C-193.26907349 93.62979783 -190.5384592 92.2590257 -187.80859375 90.88671875 C-174.25809569 84.08380732 -160.7007533 77.31332373 -146.99780273 70.82104492 C-139.70122926 67.35776124 -132.48011227 63.75606225 -125.26660156 60.12353516 C-117.76075038 56.35453134 -110.19174849 52.72873882 -102.60546875 49.125 C-96.03056548 45.99324634 -89.50439338 42.7754599 -83 39.5 C-74.58645949 35.2631384 -66.11415915 31.16691501 -57.60546875 27.125 C-50.12506455 23.56193873 -42.71335227 19.87380937 -35.31347656 16.14697266 C-25.60662839 11.27251531 -15.80322118 6.6028752 -5.98925781 1.94873047 C-1.90324241 0 -1.90324241 0 0 0 Z " fill="#008FC6" transform="translate(212,158)"/>
<path d="M0 0 C69.96 0 139.92 0 212 0 C212 21.78 212 43.56 212 66 C190.16361164 77.49283598 190.16361164 77.49283598 180.921875 81.99609375 C179.87873138 82.50722717 178.83558777 83.0183606 177.76083374 83.54498291 C174.42521266 85.17854318 171.08765851 86.80810725 167.75 88.4375 C165.38905581 89.59264157 163.02821745 90.74799947 160.66748047 91.90356445 C145.60976257 99.2713597 130.54207999 106.61881627 115.46826172 113.95361328 C100.9610495 121.01320202 86.46950772 128.10466768 71.97924805 135.19897461 C70.00569809 136.16520483 68.03214665 137.13143204 66.05859375 138.09765625 C65.0771489 138.5781694 64.09570404 139.05868256 63.08451843 139.55375671 C55.79854469 143.12055843 48.51097691 146.68409037 41.22265625 150.24609375 C40.18500122 150.75324417 39.14734619 151.26039459 38.07824707 151.78291321 C34.0507043 153.75129562 30.02313135 155.71961599 25.99530029 157.68740845 C23.25587142 159.0257556 20.51659671 160.36441785 17.77734375 161.703125 C16.97329605 162.09580063 16.16924835 162.48847626 15.34083557 162.89305115 C14.59019333 163.2599556 13.83955109 163.62686005 13.06616211 164.00488281 C12.3673996 164.34507446 11.66863708 164.68526611 10.94869995 165.0357666 C9.16457519 165.91856679 7.40051725 166.84162512 5.63891602 167.76855469 C3 169 3 169 0 169 C0 113.23 0 57.46 0 0 Z " fill="#001D48" transform="translate(0,0)"/>
</svg>
