<?xml version="1.0" encoding="UTF-8"?>
<svg version="1.1" xmlns="http://www.w3.org/2000/svg" width="512" height="512">
<path d="M0 0 C168.96 0 337.92 0 512 0 C512 168.96 512 337.92 512 512 C343.04 512 174.08 512 0 512 C0 343.04 0 174.08 0 0 Z " fill="#FEFEFE" transform="translate(0,0)"/>
<path d="M0 0 C0 78.54 0 157.08 0 238 C62.37 238 124.74 238 189 238 C189 265.39 189 292.78 189 321 C86.04 321 -16.92 321 -123 321 C-123 234.21 -123 147.42 -123 58 C-113.64323279 53.00972416 -104.42976307 48.20222439 -94.8125 43.8125 C-92.99791949 42.97652675 -91.18334192 42.14054706 -89.368927 41.30421448 C-87.50069973 40.4438358 -85.63159373 39.58539537 -83.76220703 38.72753906 C-78.7813036 36.44134464 -73.80449369 34.14634105 -68.83081055 31.84448242 C-66.53525799 30.78223962 -64.23863911 29.72229638 -61.94067383 28.6652832 C-56.00594095 25.92056435 -50.12838211 23.08516338 -44.2890625 20.14453125 C-36.37572301 16.15973253 -28.39312225 12.33267833 -20.37646484 8.56054688 C-18.07580539 7.476827 -15.77814473 6.38690371 -13.48046875 5.296875 C-12.01059307 4.60379243 -10.54054774 3.9110695 -9.0703125 3.21875 C-8.04552292 2.73142395 -8.04552292 2.73142395 -7.00003052 2.23425293 C-2.22890272 0 -2.22890272 0 0 0 Z " fill="#008FC7" transform="translate(223,140)"/>
<path d="M0 0 C40.59 0 81.18 0 123 0 C123 12.54 123 25.08 123 38 C117.988125 40.35125 112.97625 42.7025 107.8125 45.125 C95.73012786 50.79990323 83.68761376 56.54896539 71.68170166 62.38366699 C63.86271857 66.17998031 56.00667482 69.84084322 48.03808594 73.31103516 C43.36388738 75.35751069 38.79631327 77.55921274 34.25 79.875 C27.65849017 83.23026336 20.97894242 86.36740629 14.25 89.4375 C13.29641602 89.87497559 12.34283203 90.31245117 11.36035156 90.76318359 C10.4628418 91.17004395 9.56533203 91.5769043 8.640625 91.99609375 C7.44228027 92.54027954 7.44228027 92.54027954 6.21972656 93.09545898 C4 94 4 94 0 95 C0 63.65 0 32.3 0 0 Z " fill="#021E48" transform="translate(100,50)"/>
<path d="M0 0 C75.3225 -0.061875 150.645 -0.12375 228.25 -0.1875 C263.9523584 -0.22846802 263.9523584 -0.22846802 300.37597656 -0.27026367 C329.39404297 -0.28381348 329.39404297 -0.28381348 342.96966553 -0.28633118 C352.47082744 -0.28913118 361.97193656 -0.30014586 371.4730835 -0.31672668 C382.42994053 -0.33581966 393.38674685 -0.34450852 404.34362064 -0.34033485 C409.94879083 -0.33852719 415.55384765 -0.34139817 421.15899706 -0.35764539 C426.23020632 -0.37225555 431.30122215 -0.37296276 436.37244034 -0.36270332 C438.20309058 -0.36143376 440.03375302 -0.36521625 441.86437941 -0.37464774 C453.71382165 -0.43209507 465.05049546 -0.13428923 475.75 5.6875 C476.56984375 6.12449219 477.3896875 6.56148438 478.234375 7.01171875 C478.81703125 7.33785156 479.3996875 7.66398438 480 8 C479.34 8.33 478.68 8.66 478 9 C475.10650808 7.91494053 472.33900698 6.61357031 469.53125 5.32421875 C459.78900213 1.6708758 449.99352529 1.7103809 439.71957397 1.73257446 C438.07242425 1.72883353 436.42527629 1.72423025 434.77813113 1.71884382 C430.27096439 1.70665301 425.7638721 1.70686965 421.25669265 1.70923257 C416.38806636 1.70964173 411.51946362 1.69859206 406.65084839 1.68911743 C397.11904966 1.67252765 387.58727568 1.66700879 378.05546372 1.66589268 C370.3041193 1.66494118 362.55278303 1.66082583 354.80144119 1.65449142 C332.80655779 1.63688405 310.81169388 1.62765169 288.81680338 1.62915237 C287.63186276 1.62923228 286.44692213 1.6293122 285.22607422 1.62939453 C284.03968029 1.62947629 282.85328637 1.62955805 281.63094111 1.62964229 C262.41090252 1.63045491 243.19094236 1.61132204 223.97092645 1.5831178 C204.21791026 1.55436104 184.46493228 1.54057906 164.71189463 1.54230535 C153.62936186 1.54296832 142.5469113 1.53751704 131.46439743 1.51594925 C122.02721967 1.49770065 112.59016138 1.49342025 103.15297358 1.5069681 C98.34285535 1.51347935 93.53296605 1.51368186 88.72286987 1.4962616 C84.30965035 1.48044382 79.89683962 1.48348249 75.48362954 1.50082986 C73.89684218 1.50388073 72.31002363 1.50034053 70.72327308 1.48910971 C57.67538344 1.40295951 46.39420249 3.76426681 34 8 C34 8.66 34 9.32 34 10 C31.34771188 11.07525194 28.71631546 12.09456151 26 13 C25.31940904 14.32627982 24.65532765 15.66105717 24 17 C22.59028829 18.54578427 21.12659208 20.04330602 19.625 21.5 C18.85414062 22.2528125 18.08328125 23.005625 17.2890625 23.78125 C15.784081 25.2400034 14.27379658 26.69330919 12.7578125 28.140625 C10.87970749 30.12724274 10.38151701 31.32938095 10 34 C9.34 34 8.68 34 8 34 C3.3966092 46.93333606 1.55548702 58.98760799 1.61231995 72.64118958 C1.60813918 74.29093003 1.60265761 75.9406676 1.59600013 77.59039992 C1.58162411 82.09082622 1.58576555 86.59106816 1.59316695 91.09150422 C1.59791588 95.95803843 1.58537353 100.82453374 1.57514954 105.6910553 C1.55798962 115.21243074 1.55711574 124.7337401 1.56236244 134.25512699 C1.56641079 141.99782164 1.56495269 149.74049682 1.55961418 157.48319054 C1.55886576 158.5869541 1.55811734 159.69071766 1.55734624 160.8279286 C1.55581469 163.07053696 1.55427634 165.31314532 1.55273127 167.55575367 C1.53901625 188.5672606 1.54443678 209.57873026 1.55591648 230.59023633 C1.56584666 249.790688 1.55291011 268.99104327 1.52898229 288.19148008 C1.50456894 307.93103553 1.49498899 327.67054613 1.50163502 347.41011637 C1.50512241 358.48253889 1.50292693 369.5548873 1.48538399 380.62729836 C1.470634 390.05343047 1.47006304 399.4794363 1.4874549 408.90556601 C1.49594444 413.70962474 1.49816471 418.51345814 1.48280334 423.31750488 C1.46888493 427.72506086 1.47381043 432.1322 1.49304258 436.5397323 C1.49678111 438.12440811 1.49394341 439.7091179 1.48343093 441.29376326 C1.38568486 457.17144245 4.1530752 471.47303146 13 485 C13.99545462 486.00452482 14.99390261 487.0061348 16 488 C16 488.66 16 489.32 16 490 C16.66 490 17.32 490 18 490 C18.53625 490.70125 19.0725 491.4025 19.625 492.125 C23.42480854 496.72476824 27.99866483 500.87474966 34 502 C34 502.66 34 503.32 34 504 C46.93333606 508.6033908 58.98760799 510.44451298 72.64118958 510.38768005 C74.29093003 510.39186082 75.9406676 510.39734239 77.59039992 510.40399987 C82.09082622 510.41837589 86.59106816 510.41423445 91.09150422 510.40683305 C95.95803843 510.40208412 100.82453374 510.41462647 105.6910553 510.42485046 C115.21243074 510.44201038 124.7337401 510.44288426 134.25512699 510.43763756 C141.99782164 510.43358921 149.74049682 510.43504731 157.48319054 510.44038582 C158.5869541 510.44113424 159.69071766 510.44188266 160.8279286 510.44265376 C163.07053696 510.44418531 165.31314532 510.44572366 167.55575367 510.44726873 C188.5672606 510.46098375 209.57873026 510.45556322 230.59023633 510.44408352 C249.790688 510.43415334 268.99104327 510.44708989 288.19148008 510.47101771 C307.93103553 510.49543106 327.67054613 510.50501101 347.41011637 510.49836498 C358.48253889 510.49487759 369.5548873 510.49707307 380.62729836 510.51461601 C390.05343047 510.529366 399.4794363 510.52993696 408.90556601 510.5125451 C413.70962474 510.50405556 418.51345814 510.50183529 423.31750488 510.51719666 C427.72506086 510.53111507 432.1322 510.52618957 436.5397323 510.50695742 C438.12440811 510.50321889 439.7091179 510.50605659 441.29376326 510.51656907 C461.20886257 510.63917029 478.81077273 505.85831171 493.5625 491.6640625 C507.2783713 476.67331854 510.31162417 459.24612523 510.26069641 439.6993866 C510.26372038 438.05009915 510.26761109 436.4008131 510.27228898 434.75152951 C510.28254612 430.23856712 510.28039298 425.72568437 510.27610838 421.21271551 C510.273637 416.33801445 510.28266046 411.46333237 510.29014587 406.58863831 C510.30288357 397.04581137 510.30468771 387.50301258 510.30234561 377.96017858 C510.3005612 370.20165774 510.30231473 362.44314544 510.30657005 354.68462563 C510.30746284 353.02707133 510.30746284 353.02707133 510.30837366 351.33603108 C510.30958543 349.09100093 510.31079957 346.84597077 510.31201603 344.60094062 C510.32288805 323.55520922 510.32073071 302.50949385 510.31463119 281.46376155 C510.30946271 262.22231017 510.32071627 242.98090942 510.33972941 223.73946806 C510.35911461 203.96951696 510.36736258 184.19958981 510.36360615 164.42962915 C510.3616951 153.33547157 510.36417234 142.24135708 510.37832069 131.14720726 C510.39024416 121.70227177 510.39162854 112.25740591 510.37953053 102.81246945 C510.37364857 97.99668551 510.37252351 93.18102885 510.38453293 88.36525345 C510.39541429 83.95039858 510.39226166 79.53577692 510.37827124 75.12093285 C510.37563051 73.53016318 510.37797112 71.9393751 510.38600711 70.34862354 C510.42636543 61.75823972 509.88844963 53.89722453 507.54543751 45.5502575 C507 43 507 43 508 40 C512.26415108 50.81420243 512.55970437 60.5282637 512.48101807 71.98872375 C512.48277066 73.88865387 512.48628365 75.78858303 512.49139404 77.68850708 C512.50032381 82.89042208 512.48437033 88.09200488 512.46429092 93.29387774 C512.44677122 98.99668113 512.45267285 104.69947025 512.45556259 110.40229321 C512.45768565 121.46258667 512.43925132 132.5227498 512.41355728 143.58300982 C512.38471699 156.38164657 512.38157608 169.18020544 512.37841797 181.97888184 C512.35743078 215.75677516 512.30158615 249.53463955 512.25 283.3125 C512.1675 358.779375 512.085 434.24625 512 512 C343.04 512 174.08 512 0 512 C0 343.04 0 174.08 0 0 Z " fill="#B7B7B7" transform="translate(0,0)"/>
<path d="M0 0 C58.14222414 -0.06781992 116.28444016 -0.12153536 174.42669584 -0.15319599 C181.29097438 -0.15693791 188.15525283 -0.16082759 195.01953125 -0.16479492 C195.70260009 -0.1651872 196.38566894 -0.16557948 197.08943684 -0.16598364 C219.21940052 -0.1787618 241.34934118 -0.20129134 263.47929092 -0.22889166 C286.87080869 -0.25801233 310.26230727 -0.27599213 333.65384459 -0.28226548 C347.66349665 -0.28638174 361.67308261 -0.29938256 375.68271431 -0.3237494 C385.28973284 -0.33960761 394.89671719 -0.34440015 404.50374785 -0.34050413 C410.04640912 -0.33858274 415.58895488 -0.34152765 421.13159561 -0.35761642 C426.2098453 -0.37224936 431.28790215 -0.37293027 436.36616084 -0.36269668 C438.19947512 -0.36143246 440.03280159 -0.36520911 441.866092 -0.37464955 C453.71494742 -0.43209733 465.05104904 -0.13398802 475.75 5.6875 C476.56984375 6.12449219 477.3896875 6.56148438 478.234375 7.01171875 C478.81703125 7.33785156 479.3996875 7.66398438 480 8 C479.34 8.33 478.68 8.66 478 9 C475.10650808 7.91494053 472.33900698 6.61357031 469.53125 5.32421875 C459.78900213 1.6708758 449.99352529 1.7103809 439.71957397 1.73257446 C438.07242425 1.72883353 436.42527629 1.72423025 434.77813113 1.71884382 C430.27096439 1.70665301 425.7638721 1.70686965 421.25669265 1.70923257 C416.38806636 1.70964173 411.51946362 1.69859206 406.65084839 1.68911743 C397.11904966 1.67252765 387.58727568 1.66700879 378.05546372 1.66589268 C370.3041193 1.66494118 362.55278303 1.66082583 354.80144119 1.65449142 C332.80655779 1.63688405 310.81169388 1.62765169 288.81680338 1.62915237 C287.63186276 1.62923228 286.44692213 1.6293122 285.22607422 1.62939453 C284.03968029 1.62947629 282.85328637 1.62955805 281.63094111 1.62964229 C262.41090252 1.63045491 243.19094236 1.61132204 223.97092645 1.5831178 C204.21791026 1.55436104 184.46493228 1.54057906 164.71189463 1.54230535 C153.62936186 1.54296832 142.5469113 1.53751704 131.46439743 1.51594925 C122.02721967 1.49770065 112.59016138 1.49342025 103.15297358 1.5069681 C98.34285535 1.51347935 93.53296605 1.51368186 88.72286987 1.4962616 C84.30965035 1.48044382 79.89683962 1.48348249 75.48362954 1.50082986 C73.89684218 1.50388073 72.31002363 1.50034053 70.72327308 1.48910971 C57.67538344 1.40295951 46.39420249 3.76426681 34 8 C34 8.66 34 9.32 34 10 C31.34771188 11.07525194 28.71631546 12.09456151 26 13 C25.31940904 14.32627982 24.65532765 15.66105717 24 17 C22.59028829 18.54578427 21.12659208 20.04330602 19.625 21.5 C18.85414062 22.2528125 18.08328125 23.005625 17.2890625 23.78125 C15.784081 25.2400034 14.27379658 26.69330919 12.7578125 28.140625 C10.87970749 30.12724274 10.38151701 31.32938095 10 34 C9.34 34 8.68 34 8 34 C7.34 35.98 6.68 37.96 6 40 C5.34 40 4.68 40 4 40 C2.515 46.435 2.515 46.435 1 53 C0.67 53 0.34 53 0 53 C0 35.51 0 18.02 0 0 Z " fill="#CCCCCC" transform="translate(0,0)"/>
<path d="M0 0 C6.39956999 6.39956999 5.38269274 17.98943252 5.38724393 26.43335408 C5.3786873 28.20497562 5.36985057 29.97659582 5.36076355 31.74821472 C5.36207313 33.65099301 5.36470234 35.55377076 5.36853105 37.45654565 C5.37521806 42.66508509 5.36326789 47.87343838 5.34819686 53.08195412 C5.33521501 58.70621667 5.33962748 64.33046911 5.34190369 69.95474243 C5.34347506 79.69250656 5.33408003 89.43021028 5.31719017 99.16795921 C5.29278635 113.24701892 5.28499348 127.32604948 5.2812262 141.40512804 C5.27466389 164.24870187 5.25473452 187.0922364 5.22631836 209.93579102 C5.19875022 232.12328932 5.17750666 254.31077901 5.16479492 276.49829102 C5.16440034 277.18261589 5.16400576 277.86694077 5.16359923 278.57200276 C5.15964355 285.44448744 5.15581613 292.31697219 5.15208265 299.189457 C5.12077752 356.79299473 5.06701846 414.39649349 5 472 C-12.49 472 -29.98 472 -48 472 C-48 471.67 -48 471.34 -48 471 C-43.71 470.01 -39.42 469.02 -35 468 C-35 467.34 -35 466.68 -35 466 C-33.78376953 465.41605469 -33.78376953 465.41605469 -32.54296875 464.8203125 C-16.56436589 456.74730477 -6.97489839 445.70479241 -0.04296875 429.21484375 C3.12510114 419.44959462 3.28720881 409.87519166 3.26069641 399.6993866 C3.26372038 398.05009915 3.26761109 396.4008131 3.27228898 394.75152951 C3.28254612 390.23856712 3.28039298 385.72568437 3.27610838 381.21271551 C3.273637 376.33801445 3.28266046 371.46333237 3.29014587 366.58863831 C3.30288357 357.04581137 3.30468771 347.50301258 3.30234561 337.96017858 C3.3005612 330.20165774 3.30231473 322.44314544 3.30657005 314.68462563 C3.30716524 313.57958943 3.30776043 312.47455323 3.30837366 311.33603108 C3.30958543 309.09100093 3.31079957 306.84597077 3.31201603 304.60094062 C3.32288805 283.55520922 3.32073071 262.50949385 3.31463119 241.46376155 C3.30946271 222.22231017 3.32071627 202.98090942 3.33972941 183.73946806 C3.35911461 163.96951696 3.36736258 144.19958981 3.36360615 124.42962915 C3.3616951 113.33547157 3.36417234 102.24135708 3.37832069 91.14720726 C3.39024416 81.70227177 3.39162854 72.25740591 3.37953053 62.81246945 C3.37364857 57.99668551 3.37252351 53.18102885 3.38453293 48.36525345 C3.39541429 43.95039858 3.39226166 39.53577692 3.37827124 35.12093285 C3.37563051 33.53016318 3.37797112 31.9393751 3.38600711 30.34862354 C3.42625261 21.78225343 2.88962306 13.89106749 0.64309376 5.5502575 C0 3 0 3 0 0 Z " fill="#CBCBCB" transform="translate(507,40)"/>
<path d="M0 0 C17.82 0 35.64 0 54 0 C54 17.49 54 34.98 54 53 C53.67 53 53.34 53 53 53 C52.01 48.71 51.02 44.42 50 40 C49.34 40 48.68 40 48 40 C47.34 38.02 46.68 36.04 46 34 C45.34 34 44.68 34 44 34 C43.566875 32.906875 43.13375 31.81375 42.6875 30.6875 C41.49126084 27.86209702 40.29266065 26.07431202 38 24 C38 23.34 38 22.68 38 22 C37.34 22 36.68 22 36 22 C35.505 21.319375 35.01 20.63875 34.5 19.9375 C31.5042017 16.41743699 28.17009142 14.19425625 24.33984375 11.6484375 C22 10 22 10 20.5859375 8.453125 C18.24145823 6.30498143 15.64922956 5.48863764 12.6875 4.375 C11.57761719 3.94960938 10.46773438 3.52421875 9.32421875 3.0859375 C6.2028571 2.06626824 3.24809144 1.44225148 0 1 C0 0.67 0 0.34 0 0 Z " fill="#F4F4F4" transform="translate(458,0)"/>
<path d="M0 0 C0.99 0.33 1.98 0.66 3 1 C-1 4 -1 4 -11 8 C-11.33 94.13 -11.66 180.26 -12 269 C90.3 269 192.6 269 298 269 C298 242.27 298 215.54 298 188 C235.96 188 173.92 188 110 188 C110 187.67 110 187.34 110 187 C172.37 187 234.74 187 299 187 C299 214.39 299 241.78 299 270 C196.04 270 93.08 270 -13 270 C-13 183.21 -13 96.42 -13 7 C-8.71 4.69 -4.42 2.38 0 0 Z " fill="#1A87B3" transform="translate(113,191)"/>
<path d="M0 0 C38.94 0 77.88 0 118 0 C118 0.33 118 0.66 118 1 C79.39 1 40.78 1 1 1 C1 30.04 1 59.08 1 89 C2.98 88.505 2.98 88.505 5 88 C7.75 88.4375 7.75 88.4375 10 89 C10 88.34 10 87.68 10 87 C11.65 87 13.3 87 15 87 C10.79066147 90.50778211 5.5744558 94 0 94 C0 62.98 0 31.96 0 0 Z " fill="#061C3C" transform="translate(100,51)"/>
<path d="M0 0 C0 78.54 0 157.08 0 238 C-0.33 238 -0.66 238 -1 238 C-1 160.45 -1 82.9 -1 3 C-2.65 3 -4.3 3 -6 3 C-2.25 0 -2.25 0 0 0 Z " fill="#1D84A7" transform="translate(223,140)"/>
<path d="M0 0 C-1 3 -1 3 -2.96875 4.0625 C-3.8040625 4.371875 -4.639375 4.68125 -5.5 5 C-6.39460938 5.33515625 -7.28921875 5.6703125 -8.2109375 6.015625 C-12.1241931 7.39677404 -16.04618887 8.73936457 -20 10 C-20 11.32 -20 12.64 -20 14 C-24.0527516 14.98248524 -27.83861737 15.08159574 -32 15 C-28.86243153 12.45514622 -25.65537273 10.77215144 -21.9921875 9.08203125 C-20.84105469 8.55029297 -19.68992188 8.01855469 -18.50390625 7.47070312 C-16.70759766 6.64989258 -16.70759766 6.64989258 -14.875 5.8125 C-13.65739032 5.24839591 -12.43994069 4.68394621 -11.22265625 4.11914062 C-2.26013049 0 -2.26013049 0 0 0 Z " fill="#2B93BE" transform="translate(217,143)"/>
<path d="M0 0 C-0.33 1.32 -0.66 2.64 -1 4 C-2.58086048 4.36504603 -4.16483907 4.71660506 -5.75 5.0625 C-6.63171875 5.25972656 -7.5134375 5.45695313 -8.421875 5.66015625 C-10.98679028 5.99825872 -12.57091639 5.81158635 -15 5 C-13.06891037 3.96709159 -11.129882 2.94901328 -9.1875 1.9375 C-8.10855469 1.36902344 -7.02960938 0.80054688 -5.91796875 0.21484375 C-3 -1 -3 -1 0 0 Z " fill="#1590BD" transform="translate(171,166)"/>
<path d="M0 0 C1.65 0 3.3 0 5 0 C0.79066147 3.50778211 -4.4255442 7 -10 7 C-9.67 5.35 -9.34 3.7 -9 2 C-5.67465243 0.89155081 -3.37817425 1.15545644 0 2 C0 1.34 0 0.68 0 0 Z " fill="#132544" transform="translate(110,138)"/>
<path d="M0 0 C-1.52524036 3.60286506 -3.67485437 5.94299983 -6.4375 8.6875 C-7.21996094 9.47511719 -8.00242187 10.26273438 -8.80859375 11.07421875 C-11 13 -11 13 -14 14 C-11.79594636 9.04087931 -6.09361828 0 0 0 Z " fill="#999999" transform="translate(26,13)"/>
<path d="M0 0 C0 0.66 0 1.32 0 2 C-0.99 2 -1.98 2 -3 2 C-3 2.66 -3 3.32 -3 4 C-2.34 4.33 -1.68 4.66 -1 5 C-1 5.66 -1 6.32 -1 7 C-2.98 7 -4.96 7 -7 7 C-7 6.34 -7 5.68 -7 5 C-8.65 5.33 -10.3 5.66 -12 6 C-8.59780735 3.25207517 -4.51535412 0 0 0 Z " fill="#1691BC" transform="translate(132,183)"/>
<path d="M0 0 C0 1.32 0 2.64 0 4 C-4.0527516 4.98248524 -7.83861737 5.08159574 -12 5 C-8.24532309 1.94063363 -4.91886939 0 0 0 Z " fill="#1692BC" transform="translate(197,153)"/>
<path d="M0 0 C2.97 0 5.94 0 9 0 C6.66302971 2.33697029 4.50902101 3.27094054 1.5 4.625 C0.5203125 5.07101563 -0.459375 5.51703125 -1.46875 5.9765625 C-4 7 -4 7 -6 7 C-6 6.34 -6 5.68 -6 5 C-5.195625 4.731875 -4.39125 4.46375 -3.5625 4.1875 C-2.716875 3.795625 -1.87125 3.40375 -1 3 C-0.67 2.01 -0.34 1.02 0 0 Z " fill="#D8F7FC" transform="translate(145,172)"/>
<path d="M0 0 C0.66 0.33 1.32 0.66 2 1 C-3.04615385 5.92307692 -3.04615385 5.92307692 -7.875 6.3125 C-8.90625 6.209375 -9.9375 6.10625 -11 6 C-8.88613536 3.88613536 -7.20732397 3.02991678 -4.5 1.8125 C-3.7059375 1.44769531 -2.911875 1.08289063 -2.09375 0.70703125 C-1.4028125 0.47371094 -0.711875 0.24039063 0 0 Z " fill="#2891BC" transform="translate(183,158)"/>
<path d="M0 0 C0 0.66 0 1.32 0 2 C-2.97 3.32 -5.94 4.64 -9 6 C-8 3 -8 3 -5.625 1.3125 C-3 0 -3 0 0 0 Z " fill="#0F2342" transform="translate(216,89)"/>
<path d="M0 0 C0 0.99 0 1.98 0 3 C-3.22791555 5.1519437 -4.28400809 5.20086443 -8 5 C-5.44008376 2.98863724 -2.95409701 1.37154504 0 0 Z " fill="#2090BF" transform="translate(145,176)"/>
<path d="M0 0 C-0.33 0.99 -0.66 1.98 -1 3 C-3.06640625 3.73046875 -3.06640625 3.73046875 -5.5625 4.1875 C-6.38878906 4.34605469 -7.21507812 4.50460938 -8.06640625 4.66796875 C-9.02353516 4.83232422 -9.02353516 4.83232422 -10 5 C-3.63636364 0 -3.63636364 0 0 0 Z " fill="#1B8BB2" transform="translate(217,143)"/>
<path d="M0 0 C0.66 0.33 1.32 0.66 2 1 C0.7934375 1.4021875 0.7934375 1.4021875 -0.4375 1.8125 C-1.283125 2.204375 -2.12875 2.59625 -3 3 C-3.33 3.99 -3.66 4.98 -4 6 C-4.99 5.67 -5.98 5.34 -7 5 C-7 4.34 -7 3.68 -7 3 C-4.69631264 1.93347808 -2.35981813 0.93578995 0 0 Z " fill="#E5EEF4" transform="translate(187,104)"/>
</svg>
