<?xml version="1.0" encoding="UTF-8"?>
<svg version="1.1" xmlns="http://www.w3.org/2000/svg" width="3934" height="728">
<path d="M0 0 C0 138.93 0 277.86 0 421 C106.92 421 213.84 421 324 421 C324 470.17 324 519.34 324 570 C147.12 570 -29.76 570 -212 570 C-212 415.89 -212 261.78 -212 103 C-206.72 100.36 -201.44 97.72 -196 95 C-193.26907349 93.62979783 -190.5384592 92.2590257 -187.80859375 90.88671875 C-174.25809569 84.08380732 -160.7007533 77.31332373 -146.99780273 70.82104492 C-139.70122926 67.35776124 -132.48011227 63.75606225 -125.26660156 60.12353516 C-117.76075038 56.35453134 -110.19174849 52.72873882 -102.60546875 49.125 C-96.03056548 45.99324634 -89.50439338 42.7754599 -83 39.5 C-74.58645949 35.2631384 -66.11415915 31.16691501 -57.60546875 27.125 C-50.12506455 23.56193873 -42.71335227 19.87380937 -35.31347656 16.14697266 C-25.60662839 11.27251531 -15.80322118 6.6028752 -5.98925781 1.94873047 C-1.90324241 0 -1.90324241 0 0 0 Z " fill="#FEFEFE" transform="translate(212,158)"/>
<path d="M0 0 C0.83789062 0.63421875 1.67578125 1.2684375 2.5390625 1.921875 C18.53688075 14.30408727 32.38736698 29.49979763 44 46 C44.42893555 46.58958496 44.85787109 47.17916992 45.29980469 47.78662109 C66.33205904 76.69983302 86 119.57177135 86 156 C56.63 156 27.26 156 -3 156 C-6.35519215 148.17121832 -6.35519215 148.17121832 -7.54296875 144.5390625 C-22.24138658 100.5243728 -49.80047448 63.97312029 -91.54296875 42.6484375 C-138.37528884 19.37738896 -195.36404038 16.11974378 -244.90625 32.59765625 C-264.00511147 39.22508185 -281.95529065 48.68120283 -298 61 C-299.25490234 61.94552734 -299.25490234 61.94552734 -300.53515625 62.91015625 C-345.89416158 98.41743192 -369.9243228 152.86951701 -377.421875 208.91015625 C-383.30021357 257.65380528 -375.68713266 308.0701375 -356 353 C-355.65211426 353.79744629 -355.30422852 354.59489258 -354.94580078 355.41650391 C-333.28385392 404.46073782 -295.3536681 445.24667874 -245.20019531 465.43579102 C-231.39164023 470.75834248 -216.69204584 474.30172588 -202 476 C-201.1028125 476.11085938 -200.205625 476.22171875 -199.28125 476.3359375 C-150.46834187 481.40918919 -100.25947575 467.90558154 -62 437 C-44.93410264 422.42670235 -31.37454682 405.73920766 -20.8125 385.9375 C-20.36213379 385.10831055 -19.91176758 384.27912109 -19.44775391 383.42480469 C-13.87813069 372.62805921 -10.32422009 361.53125357 -6 350 C24.03 350 54.06 350 85 350 C83.8729408 361.27059199 83.8729408 361.27059199 82.65234375 365.671875 C82.24592651 367.14527344 82.24592651 367.14527344 81.83129883 368.6484375 C81.53634521 369.67195313 81.2413916 370.69546875 80.9375 371.75 C80.62514404 372.84054687 80.31278809 373.93109375 79.9909668 375.0546875 C69.13652133 412.22988291 51.90050095 447.21372958 25.22265625 475.625 C23.28109523 477.69963814 21.44755747 479.82171445 19.625 482 C1.49308746 502.69220574 -23.23228236 518.50027582 -48 530 C-48.69383789 530.3295166 -49.38767578 530.6590332 -50.10253906 530.99853516 C-121.61091674 564.87348253 -213.92758042 566.39481989 -288.08544922 540.4453125 C-317.99244246 529.46506503 -344.13310499 512.87622097 -368 492 C-368.75796875 491.33895264 -368.75796875 491.33895264 -369.53125 490.66455078 C-431.3208892 436.41759214 -461.21677862 352.91103866 -466.55615234 272.56420898 C-466.77485622 268.71087433 -466.90404567 264.85816361 -467 261 C-467.02191406 260.18772949 -467.04382812 259.37545898 -467.06640625 258.53857422 C-468.92865324 177.7325734 -445.51970136 93.81202182 -392 32 C-391.26007813 31.13117188 -390.52015625 30.26234375 -389.7578125 29.3671875 C-379.5307341 17.67358465 -368.39051511 6.38779975 -356 -3 C-355.47180664 -3.40992188 -354.94361328 -3.81984375 -354.39941406 -4.2421875 C-271.34899926 -68.58841146 -146.56654078 -74.4614659 0 0 Z " fill="#FEFEFE" transform="translate(1619,116)"/>
<path d="M0 0 C31.64372943 -0.0663519 63.28739077 -0.12166069 94.93116822 -0.15319599 C98.68173271 -0.15694733 102.43229706 -0.16083037 106.18286133 -0.16479492 C106.92941387 -0.16558185 107.67596641 -0.16636878 108.44514176 -0.16717956 C120.47406348 -0.18017189 132.50294142 -0.20379097 144.53183732 -0.23145839 C156.90899079 -0.2596857 169.28612161 -0.2762125 181.66330594 -0.28226548 C189.27769345 -0.28634637 196.89195717 -0.29915104 204.50630649 -0.3237494 C210.38186536 -0.34174349 216.25734797 -0.34332266 222.13292885 -0.33932304 C224.51624301 -0.34013704 226.89956261 -0.34594921 229.28284836 -0.35761642 C283.4849684 -0.60956329 338.12682663 11.06135413 378 50 C378.639375 50.58910156 379.27875 51.17820313 379.9375 51.78515625 C412.70863846 82.65981679 423.45851135 131.68043756 425.109375 174.86083984 C426.69899816 231.97798707 407.58166961 286.59299117 368.39941406 328.45581055 C355.514191 341.97367898 335.84654322 359.82755126 317 364 C323.92397793 376.46761298 330.89472337 388.89461163 338.125 401.1875 C343.07494104 409.60884607 347.82731624 418.11309747 352.46142578 426.71166992 C356.16912304 433.55858357 360.05007936 440.29030948 364 447 C368.99390224 455.48309158 373.79124645 464.04578886 378.4609375 472.7109375 C382.16895168 479.5580113 386.04992995 486.29005568 390 493 C394.99390224 501.48309158 399.79124645 510.04578886 404.4609375 518.7109375 C408.16895528 525.55801796 412.05009249 532.28995513 416 539 C420.9984604 547.49512896 425.82374564 556.06137542 430.50488281 564.73510742 C434.88540362 572.83995469 439.41641646 580.85561892 443.98852539 588.85375977 C444.51309326 589.77471436 445.03766113 590.69566895 445.578125 591.64453125 C446.28050293 592.87200073 446.28050293 592.87200073 446.99707031 594.12426758 C448 596 448 596 448 597 C415.66 597 383.32 597 350 597 C344.03061073 585.65816038 338.09920749 574.3391152 332.39610291 562.86737061 C331.23524048 560.53245829 330.07158583 558.19895393 328.90734863 555.86572266 C326.02047416 550.07885772 323.13805858 544.28977501 320.2555542 538.50073242 C317.80233779 533.57429302 315.34732707 528.64875514 312.89012146 523.7243042 C311.76427248 521.46629994 310.64090653 519.20707354 309.5177002 516.94775391 C305.84480086 509.57610949 302.09787431 502.25188239 298.24072266 494.97485352 C292.12065559 483.41785182 286.27936524 471.72288071 280.4296875 460.02734375 C279.25576316 457.68271612 278.08178138 455.33811724 276.90774536 452.99354553 C274.47078678 448.12595441 272.03573464 443.25741278 269.6015625 438.38842773 C266.78869729 432.76209055 263.97131984 427.13802828 261.15195072 421.51494783 C258.42322815 416.07211486 255.69890059 410.62709353 252.97626114 405.18121529 C251.82205575 402.87398644 250.6665496 400.56740783 249.50973129 398.26148796 C247.9048898 395.06153344 246.30506996 391.85911833 244.70654297 388.65600586 C244.22666428 387.70186798 243.74678558 386.7477301 243.25236511 385.76467896 C242.82086655 384.89748734 242.38936798 384.03029572 241.9447937 383.13682556 C241.56694166 382.38166625 241.18908962 381.62650694 240.79978752 380.84846401 C240 379 240 379 240 377 C190.5 377 141 377 90 377 C90 449.6 90 522.2 90 597 C60.3 597 30.6 597 0 597 C0 499.98 0 402.96 0 303 C114.6875 302.6875 114.6875 302.6875 150.8112793 302.61206055 C161.55924941 302.57546767 161.55924941 302.57546767 172.3072052 302.5349884 C177.06962561 302.51715561 181.8319854 302.50746827 186.59443665 302.50288391 C192.69279476 302.49673921 198.79095418 302.47621866 204.889238 302.44583857 C207.11258635 302.43710976 209.3359608 302.43318513 211.55932558 302.43496072 C243.68177363 302.4528244 277.64377662 297.55911838 303 276 C303.86753906 275.26910156 304.73507812 274.53820312 305.62890625 273.78515625 C320.89775435 260.47326931 330.89730292 243.87956053 336.75 224.5 C336.94875732 223.84870117 337.14751465 223.19740234 337.35229492 222.52636719 C340.68804967 210.84193178 341.40944529 199.02588234 341.375 186.9375 C341.37445618 186.2155545 341.37391235 185.49360901 341.37335205 184.74978638 C341.33214764 172.81154917 340.43965456 161.48396545 337 150 C336.79101074 149.29149902 336.58202148 148.58299805 336.36669922 147.85302734 C329.40260135 125.17667271 313.81331287 107.0360038 293 95.8125 C264.20480578 80.93673297 232.35194099 79.88365609 200.59936523 79.79467773 C198.39983954 79.78507556 196.2003156 79.7750642 194.00079346 79.76467896 C188.08257877 79.73787691 182.16435631 79.71673522 176.24611545 79.69667697 C170.04150942 79.67466321 163.83692666 79.64735052 157.63233948 79.62062073 C145.90669165 79.5709003 134.18103076 79.52588571 122.45535761 79.48259836 C113.08424344 79.44784063 103.71314014 79.41090951 94.34204102 79.37231445 C93.34959044 79.36822804 93.34959044 79.36822804 92.33709037 79.36405908 C89.01724313 79.35037759 85.69739606 79.33665562 82.37754905 79.32291877 C54.91838685 79.20941613 27.45920295 79.10320888 0 79 C0 52.93 0 26.86 0 0 Z " fill="#FEFEFE" transform="translate(2267,67)"/>
<path d="M0 0 C26.63615817 0.96736252 26.63615817 0.96736252 36.25 2.1875 C37.26771484 2.31640625 38.28542969 2.4453125 39.33398438 2.578125 C100.48340375 10.83050865 164.09385326 38.75643469 204.35546875 87.05078125 C205.50668741 88.41528982 206.70121352 89.74388372 207.92578125 91.04296875 C264.52646229 151.16179084 286.84674883 239.84274643 285.109375 320.42431641 C284.52657068 339.47733434 282.42680724 358.25434656 279 377 C278.80986328 378.05026367 278.61972656 379.10052734 278.42382812 380.18261719 C273.30616572 407.54113702 264.51984162 435.10334229 252 460 C251.56252441 460.89364258 251.12504883 461.78728516 250.67431641 462.70800781 C241.14182845 482.13082477 229.6877651 500.23194545 216 517 C215.56574707 517.5357666 215.13149414 518.0715332 214.68408203 518.62353516 C203.20087879 532.70593542 190.43206667 545.92970554 176 557 C174.60394531 558.13888672 174.60394531 558.13888672 173.1796875 559.30078125 C120.76720522 601.32460016 52.97023687 616.42006208 -13 615 C-14.07217773 614.98066406 -15.14435547 614.96132813 -16.24902344 614.94140625 C-87.43714644 613.52472719 -157.36249665 592.87811839 -210.6484375 544.12890625 C-212.64459463 542.32175403 -214.68076365 540.59642854 -216.75 538.875 C-239.09177621 519.27537339 -256.41097093 493.21429722 -270 467 C-270.37721191 466.27296875 -270.75442383 465.5459375 -271.14306641 464.796875 C-293.49750688 421.07635683 -305 370.0889622 -305 321 C-274.97 321 -244.94 321 -214 321 C-213.01 331.23 -212.02 341.46 -211 352 C-208.33429106 367.77811506 -205.14179083 382.87962092 -200 398 C-199.76168457 398.7027002 -199.52336914 399.40540039 -199.27783203 400.12939453 C-190.69398246 425.00900793 -177.88491849 447.44392247 -159.98828125 466.82421875 C-158.39293179 468.57001374 -156.90064268 470.33288102 -155.4375 472.1875 C-152.24975489 475.86566743 -148.75767921 478.91552065 -145 482 C-144.08476562 482.7528125 -143.16953125 483.505625 -142.2265625 484.28125 C-116.84224349 504.48640065 -86.9158632 517.35339955 -55 523 C-53.83186768 523.22212158 -53.83186768 523.22212158 -52.64013672 523.44873047 C-0.16470923 533.13858778 60.70303793 524.30807482 105.75 494.875 C107.51622381 493.60560793 109.26653986 492.31378032 111 491 C112.01191406 490.2678125 113.02382812 489.535625 114.06640625 488.78125 C126.79347933 479.43842135 138.55112402 468.68046182 148 456 C148.38961914 455.4853418 148.77923828 454.97068359 149.18066406 454.44042969 C189.06146206 401.55021856 199.9790608 330.72558816 190.9765625 266.0859375 C184.5241009 224.39208107 170.49721586 182.35081127 140.9921875 151.11328125 C139.16842602 149.17866368 137.49582305 147.18099905 135.8125 145.125 C104.35084771 109.35353233 53.04528948 92.46342521 6.8125 89.375 C5.15154297 89.29378906 5.15154297 89.29378906 3.45703125 89.2109375 C1 89 1 89 0 88 C-0.09516211 85.2611158 -0.12554594 82.54752059 -0.11352539 79.80834961 C-0.11367142 78.94988937 -0.11381744 78.09142914 -0.1139679 77.20695496 C-0.11326847 74.35539262 -0.1054747 71.50389475 -0.09765625 68.65234375 C-0.09579218 66.68079158 -0.09436822 64.70923895 -0.09336853 62.73768616 C-0.08954251 57.53773733 -0.07971152 52.33781625 -0.06866455 47.13787842 C-0.05845222 41.83606339 -0.05387129 36.5342439 -0.04882812 31.23242188 C-0.03808933 20.82160237 -0.02101191 10.41080349 0 0 Z " fill="#FEFEFE" transform="translate(3071,58)"/>
<path d="M0 0 C11.10640042 -0.74747844 22.20669271 -1.31274103 33.33327007 -1.6579895 C38.50401502 -1.82391327 43.65739112 -2.04765717 48.81811523 -2.4140625 C81.0484369 -4.64142186 81.0484369 -4.64142186 89.98828888 1.32754135 C98.06240424 8.36190699 102.66058668 18.42815539 107.07192993 27.98187256 C109.61874854 33.44142825 112.94465217 38.30163639 116.375 43.23828125 C117.48194496 44.91224542 118.58421598 46.58931033 119.68164062 48.26953125 C131.11088664 65.64280388 142.64455471 82.93966201 154.30123901 100.16113281 C165.52531732 116.74833953 176.56664221 133.45150406 187.56784058 150.18710327 C188.15517975 151.0805545 188.74251892 151.97400574 189.34765625 152.89453125 C190.2145256 154.21331772 190.2145256 154.21331772 191.09890747 155.55874634 C196.03340452 163.06102533 201.00766645 170.53612647 206 178 C211.58324429 186.34732473 217.13618517 194.71362141 222.65234375 203.10546875 C223.23968292 203.99891998 223.82702209 204.89237122 224.43215942 205.81289673 C225.32812332 207.17588394 225.32812332 207.17588394 226.2421875 208.56640625 C237.22866191 225.27950022 248.28842833 241.93695023 259.5 258.5 C270.66412115 274.99315602 281.67746063 291.57993379 292.6171875 308.22265625 C293.8163659 310.04690152 295.01558412 311.87112062 296.21484375 313.6953125 C296.79724823 314.58124084 297.37965271 315.46716919 297.97970581 316.37994385 C303.28448008 324.44365074 308.63509298 332.4762212 314 340.5 C319.9602218 349.41413423 325.89464241 358.34429356 331.78515625 367.3046875 C332.3759346 368.20332016 332.96671295 369.10195282 333.57539368 370.02781677 C334.79099294 371.87704302 336.00657399 373.72628123 337.22213745 375.57553101 C350.87197359 396.3389904 364.69852721 416.97838208 378.63912964 437.54768372 C382.11731244 442.68221416 385.56631959 447.83560693 389 453 C389.15149949 436.02088122 389.29668624 419.04171068 389.4375 402.0625 C389.44587072 401.05345816 389.44587072 401.05345816 389.45441055 400.02403164 C389.90553689 345.5581999 390.21879341 291.09194455 390.5 236.625 C390.58147173 220.8476533 390.6631293 205.07030768 390.74609375 189.29296875 C390.75119146 188.32276008 390.75628918 187.3525514 390.76154137 186.35294247 C390.9833151 144.21414018 391.26047157 102.07579678 391.5625 59.9375 C391.57088583 58.76616186 391.57088583 58.76616186 391.57944107 57.57116032 C391.71684317 38.38075249 391.85780426 19.19037348 392 0 C419.72 0 447.44 0 476 0 C476 197.01 476 394.02 476 597 C445.64 597 415.28 597 384 597 C379.63082444 590.75832062 375.38900494 584.57837069 371.375 578.125 C367.22430483 571.50302865 363.0220518 564.91933575 358.75 558.375 C353.79180041 550.77623244 348.88380198 543.14679143 344 535.5 C339.19655561 527.98022719 334.37361416 520.47449553 329.5 513 C323.93015504 504.45771908 318.43111625 495.87129204 312.94140625 487.27734375 C308.82194117 480.8332669 304.67736329 474.40667936 300.5 468 C294.93015504 459.45771908 289.43111625 450.87129204 283.94140625 442.27734375 C279.82194117 435.8332669 275.67736329 429.40667936 271.5 423 C265.93015504 414.45771908 260.43111625 405.87129204 254.94140625 397.27734375 C250.82194103 390.83326667 246.67734331 384.40669256 242.5 378 C236.8880464 369.39260696 231.34492841 360.74219273 225.81176758 352.08398438 C220.24035122 343.36807652 214.63090294 334.67755418 209 326 C202.67383539 316.25100649 196.38322603 306.48027967 190.125 296.6875 C184.76468372 288.30017419 179.37070683 279.93641146 173.93408203 271.59838867 C168.89081226 263.85386496 163.91654299 256.06574567 158.94140625 248.27734375 C154.82194117 241.8332669 150.67736329 235.40667936 146.5 229 C140.93015504 220.45771908 135.43111625 211.87129204 129.94140625 203.27734375 C125.82194117 196.8332669 121.67736329 190.40667936 117.5 184 C111.93015504 175.45771908 106.43111625 166.87129204 100.94140625 158.27734375 C96.82194103 151.83326667 92.67734331 145.40669256 88.5 139 C82.8880464 130.39260696 77.34492841 121.74219273 71.81176758 113.08398438 C66.24035122 104.36807652 60.63090294 95.67755418 55 87 C48.67383473 77.25100548 42.3833726 67.48018669 36.125 57.6875 C31.25355429 50.06735506 26.36856825 42.45671865 21.4375 34.875 C20.92759521 34.09036377 20.41769043 33.30572754 19.89233398 32.49731445 C16.89670991 27.89423672 13.88328493 23.3032979 10.859375 18.71875 C10.16529541 17.66316895 9.47121582 16.60758789 8.75610352 15.52001953 C7.39848114 13.45594642 6.0371094 11.39433354 4.67163086 9.33544922 C4.06198486 8.40748535 3.45233887 7.47952148 2.82421875 6.5234375 C2.27854248 5.69763184 1.73286621 4.87182617 1.1706543 4.02099609 C0 2 0 2 0 0 Z " fill="#FEFEFE" transform="translate(3458,67)"/>
<path d="M0 0 C145.86 0 291.72 0 442 0 C442 30.03 442 60.06 442 91 C296.14 91 150.28 91 0 91 C0 60.97 0 30.94 0 0 Z " fill="#FEFEFE" transform="translate(1750,67)"/>
<path d="M0 0 C135.3 0 270.6 0 410 0 C410 30.36 410 60.72 410 92 C274.7 92 139.4 92 0 92 C0 61.64 0 31.28 0 0 Z " fill="#FEFEFE" transform="translate(649,572)"/>
<path d="M0 0 C135.3 0 270.6 0 410 0 C410 30.03 410 60.06 410 91 C274.7 91 139.4 91 0 91 C0 60.97 0 30.94 0 0 Z " fill="#FEFEFE" transform="translate(649,67)"/>
<path d="M0 0 C29.37 0 58.74 0 89 0 C89 132.66 89 265.32 89 402 C59.63 402 30.26 402 0 402 C0 269.34 0 136.68 0 0 Z " fill="#FEFEFE" transform="translate(1927,262)"/>
<path d="M0 0 C135.3 0 270.6 0 410 0 C410 28.05 410 56.1 410 85 C274.7 85 139.4 85 0 85 C0 56.95 0 28.9 0 0 Z " fill="#FFFFFF" transform="translate(649,323)"/>
<path d="M0 0 C0.66 0 1.32 0 2 0 C3.14631653 1.38105774 3.14631653 1.38105774 4.42895508 3.35668945 C4.91696091 4.10052887 5.40496674 4.84436829 5.90776062 5.61074829 C6.43964493 6.43658417 6.97152924 7.26242004 7.51953125 8.11328125 C8.08118484 8.97247162 8.64283844 9.83166199 9.22151184 10.71688843 C10.44552964 12.5903955 11.66649695 14.46589816 12.88482666 16.34310913 C16.17268324 21.40772828 19.48361725 26.45722298 22.79296875 31.5078125 C23.47532593 32.5502562 24.15768311 33.59269989 24.86071777 34.66673279 C33.20123463 47.39025001 41.72073583 59.99442125 50.30191612 72.55671597 C51.42517832 74.22498045 52.52999509 75.90587967 53.61204529 77.60116482 C57.07418728 82.95674938 60.68259008 87.87306484 64.83409166 92.70366979 C89.85360683 122.15349782 90.73462799 151.26533394 89.79552743 187.98554324 C89.59836057 195.91153001 89.56161279 203.83625451 89.53103576 211.76434409 C89.47251863 225.89173723 89.29446715 240.01482575 89.03686523 254.13989258 C88.78749529 267.82815612 88.59715031 281.51523383 88.4831543 295.20532227 C88.47606076 296.05480533 88.46896723 296.90428839 88.46165874 297.77951337 C88.42641252 302.04282263 88.39229486 306.30614004 88.35873735 310.5694629 C88.08063565 345.71680483 87.58393967 380.85614814 87 416 C58.29 416 29.58 416 0 416 C0 278.72 0 141.44 0 0 Z " fill="#FFFFFF" transform="translate(3451,248)"/>
<path d="M0 0 C69.96 0 139.92 0 212 0 C212 21.78 212 43.56 212 66 C190.16361164 77.49283598 190.16361164 77.49283598 180.921875 81.99609375 C179.87873138 82.50722717 178.83558777 83.0183606 177.76083374 83.54498291 C174.42521266 85.17854318 171.08765851 86.80810725 167.75 88.4375 C165.38905581 89.59264157 163.02821745 90.74799947 160.66748047 91.90356445 C145.60976257 99.2713597 130.54207999 106.61881627 115.46826172 113.95361328 C100.9610495 121.01320202 86.46950772 128.10466768 71.97924805 135.19897461 C70.00569809 136.16520483 68.03214665 137.13143204 66.05859375 138.09765625 C65.0771489 138.5781694 64.09570404 139.05868256 63.08451843 139.55375671 C55.79854469 143.12055843 48.51097691 146.68409037 41.22265625 150.24609375 C40.18500122 150.75324417 39.14734619 151.26039459 38.07824707 151.78291321 C34.0507043 153.75129562 30.02313135 155.71961599 25.99530029 157.68740845 C23.25587142 159.0257556 20.51659671 160.36441785 17.77734375 161.703125 C16.97329605 162.09580063 16.16924835 162.48847626 15.34083557 162.89305115 C14.59019333 163.2599556 13.83955109 163.62686005 13.06616211 164.00488281 C12.3673996 164.34507446 11.66863708 164.68526611 10.94869995 165.0357666 C9.16457519 165.91856679 7.40051725 166.84162512 5.63891602 167.76855469 C3 169 3 169 0 169 C0 113.23 0 57.46 0 0 Z " fill="#FEFEFE" transform="translate(0,0)"/>
</svg>
